<svg width="800" height="600" viewBox="0 0 800 600" xmlns="http://www.w3.org/2000/svg">
  <pattern id="paisley" x="0" y="0" width="100" height="100" patternUnits="userSpaceOnUse">
    <path d="M25,0 C40,15 50,40 50,50 C50,70 35,85 25,85 C15,85 0,70 0,50 C0,40 10,15 25,0 Z" fill="#8B4513" opacity="0.2" />
    <path d="M25,10 C35,20 40,35 40,50 C40,65 30,75 25,75 C20,75 10,65 10,50 C10,35 15,20 25,10 Z" fill="#FFFFFF" opacity="0.3" />
  </pattern>
  <rect width="100%" height="100%" fill="url(#paisley)" />
</svg>
