<svg width="100" height="100" viewBox="0 0 100 100" xmlns="http://www.w3.org/2000/svg">
  <circle cx="50" cy="50" r="50" fill="#F5EFE6" />
  
  <!-- Face -->
  <circle cx="50" cy="45" r="25" fill="#C68B59" />
  
  <!-- Eyes -->
  <circle cx="40" cy="40" r="3" fill="#000000" />
  <circle cx="60" cy="40" r="3" fill="#000000" />
  
  <!-- Smile -->
  <path d="M40,50 Q50,60 60,50" stroke="#000000" stroke-width="2" fill="none" />
  
  <!-- Hair -->
  <path d="M25,30 Q50,10 75,30 L75,45 Q50,35 25,45 Z" fill="#000000" />
  
  <!-- Bindi -->
  <circle cx="50" cy="30" r="3" fill="#C62828" />
  
  <!-- Earrings -->
  <circle cx="25" cy="45" r="3" fill="#F9A825" />
  <circle cx="75" cy="45" r="3" fill="#F9A825" />
  
  <!-- Saree -->
  <path d="M25,70 L25,100 L75,100 L75,70 Q50,80 25,70 Z" fill="#C62828" />
  <path d="M25,70 Q50,80 75,70 L75,85 Q50,95 25,85 Z" fill="#F9A825" />
</svg>
