<svg width="100" height="100" viewBox="0 0 100 100" xmlns="http://www.w3.org/2000/svg">
  <circle cx="50" cy="50" r="50" fill="#F5EFE6" />
  
  <!-- Face -->
  <circle cx="50" cy="45" r="25" fill="#C68B59" />
  
  <!-- Eyes -->
  <circle cx="40" cy="40" r="3" fill="#000000" />
  <circle cx="60" cy="40" r="3" fill="#000000" />
  
  <!-- Smile -->
  <path d="M40,50 Q50,60 60,50" stroke="#000000" stroke-width="2" fill="none" />
  
  <!-- Hair -->
  <path d="M25,35 Q25,20 50,20 Q75,20 75,35 L75,45 Q50,55 25,45 Z" fill="#8B4513" />
  
  <!-- Beard -->
  <path d="M35,55 Q50,70 65,55 L65,70 Q50,80 35,70 Z" fill="#8B4513" />
  
  <!-- Clothing -->
  <path d="M25,70 L25,100 L75,100 L75,70 Q50,80 25,70 Z" fill="#5D4037" />
  <path d="M40,70 L40,100 L60,100 L60,70" fill="#F9A825" />
</svg>
