<svg width="100" height="100" viewBox="0 0 100 100" xmlns="http://www.w3.org/2000/svg">
  <circle cx="50" cy="50" r="50" fill="#F5EFE6" />
  
  <!-- Face -->
  <circle cx="50" cy="45" r="25" fill="#C68B59" />
  
  <!-- Eyes -->
  <circle cx="40" cy="40" r="3" fill="#000000" />
  <circle cx="60" cy="40" r="3" fill="#000000" />
  
  <!-- Smile -->
  <path d="M40,50 Q50,60 60,50" stroke="#000000" stroke-width="2" fill="none" />
  
  <!-- Hair -->
  <path d="M30,25 Q50,15 70,25 Q75,35 70,45 Q60,55 40,55 Q30,45 25,35 Q25,30 30,25 Z" fill="#000000" />
  
  <!-- Glasses -->
  <circle cx="40" cy="40" r="8" fill="none" stroke="#5D4037" stroke-width="2" />
  <circle cx="60" cy="40" r="8" fill="none" stroke="#5D4037" stroke-width="2" />
  <line x1="48" y1="40" x2="52" y2="40" stroke="#5D4037" stroke-width="2" />
  
  <!-- Clothing -->
  <path d="M25,70 L25,100 L75,100 L75,70 Q50,80 25,70 Z" fill="#2E7D32" />
  <rect x="40" y="70" width="20" height="30" fill="#F5EFE6" />
</svg>
