<svg width="600" height="600" viewBox="0 0 600 600" xmlns="http://www.w3.org/2000/svg">
  <rect width="600" height="600" fill="#F5EFE6" />
  
  <!-- Background elements -->
  <rect x="100" y="100" width="400" height="400" fill="#F5EFE6" stroke="#8B4513" stroke-width="5" />
  
  <!-- Artisan figure -->
  <circle cx="300" cy="200" r="50" fill="#C68B59" /> <!-- Head -->
  <path d="M270,200 Q300,230 330,200" stroke="#000000" stroke-width="2" fill="none" /> <!-- Smile -->
  <circle cx="280" cy="185" r="5" fill="#000000" /> <!-- Left eye -->
  <circle cx="320" cy="185" r="5" fill="#000000" /> <!-- Right eye -->
  
  <path d="M300,250 L300,350" stroke="#8B4513" stroke-width="30" fill="none" /> <!-- Body -->
  <path d="M300,270 L250,320" stroke="#8B4513" stroke-width="10" fill="none" /> <!-- Left arm -->
  <path d="M300,270 L350,320" stroke="#8B4513" stroke-width="10" fill="none" /> <!-- Right arm -->
  
  <!-- Pottery wheel -->
  <ellipse cx="300" cy="400" rx="100" ry="30" fill="#8B4513" />
  
  <!-- Clay pot being created -->
  <path d="M280,350 Q300,330 320,350 L320,380 Q300,390 280,380 Z" fill="#C62828" />
  
  <!-- Hands working on pot -->
  <path d="M250,320 L280,350" stroke="#C68B59" stroke-width="5" fill="none" />
  <path d="M350,320 L320,350" stroke="#C68B59" stroke-width="5" fill="none" />
  
  <!-- Traditional turban -->
  <path d="M250,170 Q300,140 350,170" stroke="#F9A825" stroke-width="20" fill="none" />
  
  <!-- Mustache -->
  <path d="M280,210 L270,205" stroke="#000000" stroke-width="3" fill="none" />
  <path d="M320,210 L330,205" stroke="#000000" stroke-width="3" fill="none" />
  
  <!-- Other pottery items -->
  <ellipse cx="200" cy="450" rx="30" ry="10" fill="#C62828" />
  <path d="M170,450 Q200,430 230,450" fill="#C62828" />
  
  <ellipse cx="400" cy="450" rx="30" ry="10" fill="#C62828" />
  <path d="M370,450 Q400,430 430,450" fill="#C62828" />
</svg>
