<svg width="600" height="600" viewBox="0 0 600 600" xmlns="http://www.w3.org/2000/svg">
  <rect width="600" height="600" fill="#F5EFE6" />
  <path d="M200,200 Q300,100 400,200 Q500,300 400,400 Q300,500 200,400 Q100,  fill="#F5EFE6" />
  <path d="M200,200 Q300,100 400,200 Q500,300 400,400 Q300,500 200,400 Q100,300 200,200" fill="#8B4513" opacity="0.2" />
  
  <!-- Artisan figure -->
  <circle cx="300" cy="250" r="50" fill="#C68B59" /> <!-- Head -->
  <rect x="275" y="300" width="50" height="100" fill="#8B4513" /> <!-- Body -->
  <rect x="250" y="320" width="25" height="60" fill="#8B4513" /> <!-- Left arm -->
  <rect x="325" y="320" width="25" height="60" fill="#8B4513" /> <!-- Right arm -->
  <rect x="275" y="400" width="20" height="70" fill="#5D4037" /> <!-- Left leg -->
  <rect x="305" y="400" width="20" height="70" fill="#5D4037" /> <!-- Right leg -->
  
  <!-- Loom -->
  <rect x="150" y="350" width="300" height="10" fill="#5D4037" /> <!-- Top beam -->
  <rect x="150" y="450" width="300" height="10" fill="#5D4037" /> <!-- Bottom beam -->
  <line x1="175" y1="350" x2="175" y2="450" stroke="#5D4037" stroke-width="5" /> <!-- Left vertical -->
  <line x1="425" y1="350" x2="425" y2="450" stroke="#5D4037" stroke-width="5" /> <!-- Right vertical -->
  
  <!-- Threads -->
  <line x1="200" y1="360" x2="200" y2="450" stroke="#F9A825" stroke-width="2" />
  <line x1="220" y1="360" x2="220" y2="450" stroke="#F9A825" stroke-width="2" />
  <line x1="240" y1="360" x2="240" y2="450" stroke="#F9A825" stroke-width="2" />
  <line x1="260" y1="360" x2="260" y2="450" stroke="#C62828" stroke-width="2" />
  <line x1="280" y1="360" x2="280" y2="450" stroke="#C62828" stroke-width="2" />
  <line x1="300" y1="360" x2="300" y2="450" stroke="#C62828" stroke-width="2" />
  <line x1="320" y1="360" x2="320" y2="450" stroke="#2E7D32" stroke-width="2" />
  <line x1="340" y1="360" x2="340" y2="450" stroke="#2E7D32" stroke-width="2" />
  <line x1="360" y1="360" x2="360" y2="450" stroke="#2E7D32" stroke-width="2" />
  <line x1="380" y1="360" x2="380" y2="450" stroke="#F9A825" stroke-width="2" />
</svg>
