<svg width="600" height="600" viewBox="0 0 600 600" xmlns="http://www.w3.org/2000/svg">
  <rect width="600" height="600" fill="#F5EFE6" />
  
  <!-- Background elements -->
  <rect x="100" y="100" width="400" height="400" fill="#F5EFE6" stroke="#8B4513" stroke-width="5" />
  
  <!-- Artisan figure -->
  <circle cx="300" cy="200" r="50" fill="#C68B59" /> <!-- Head -->
  <path d="M270,200 Q300,230 330,200" stroke="#000000" stroke-width="2" fill="none" /> <!-- Smile -->
  <circle cx="280" cy="185" r="5" fill="#000000" /> <!-- Left eye -->
  <circle cx="320" cy="185" r="5" fill="#000000" /> <!-- Right eye -->
  
  <path d="M300,250 L300,350" stroke="#C62828" stroke-width="30" fill="none" /> <!-- Body/Saree -->
  <path d="M300,270 L250,320" stroke="#C62828" stroke-width="10" fill="none" /> <!-- Left arm -->
  <path d="M300,270 L350,320" stroke="#C62828" stroke-width="10" fill="none" /> <!-- Right arm -->
  
  <!-- Madhubani painting being created -->
  <rect x="200" y="350" width="200" height="150" fill="#FFFFFF" stroke="#8B4513" stroke-width="5" />
  
  <circle cx="300" cy="400" r="30" fill="#F9A825" /> <!-- Sun in painting -->
  <path d="M270,400 L240,400" stroke="#2E7D32" stroke-width="2" fill="none" />
  <path d="M330,400 L360,400" stroke="#2E7D32" stroke-width="2" fill="none" />
  <path d="M300,370 L300,340" stroke="#2E7D32" stroke-width="2" fill="none" />
  <path d="M300,430 L300,460" stroke="#2E7D32" stroke-width="2" fill="none" />
  
  <!-- Paintbrush -->
  <path d="M350,320 L380,350" stroke="#8B4513" stroke-width="5" fill="none" />
  <path d="M380,350 L390,360" stroke="#2E7D32" stroke-width="3" fill="none" />
  
  <!-- Traditional jewelry -->
  <circle cx="300" cy="240" r="5" fill="#F9A825" /> <!-- Necklace -->
  <circle cx="290" cy="240" r="5" fill="#F9A825" />
  <circle cx="310" cy="240" r="5" fill="#F9A825" />
  <circle cx="280" cy="240" r="5" fill="#F9A825" />
  <circle cx="320" cy="240" r="5" fill="#F9A825" />
  
  <circle cx="270" cy="200" r="5" fill="#F9A825" /> <!-- Earring -->
  <circle cx="330" cy="200" r="5" fill="#F9A825" /> <!-- Earring -->
</svg>
