<svg width="600" height="600" viewBox="0 0 600 600" xmlns="http://www.w3.org/2000/svg">
  <rect width="600" height="600" fill="#F5EFE6" />
  
  <!-- Bamboo stalks -->
  <rect x="250" y="100" width="30" height="400" fill="#2E7D32" />
  <rect x="320" y="150" width="30" height="350" fill="#2E7D32" />
  <rect x="180" y="200" width="30" height="300" fill="#2E7D32" />
  <rect x="390" y="180" width="30" height="320" fill="#2E7D32" />
  
  <!-- Bamboo joints -->
  <rect x="250" y="150" width="30" height="10" fill="#8B4513" />
  <rect x="250" y="250" width="30" height="10" fill="#8B4513" />
  <rect x="250" y="350" width="30" height="10" fill="#8B4513" />
  <rect x="250" y="450" width="30" height="10" fill="#8B4513" />
  
  <rect x="320" y="200" width="30" height="10" fill="#8B4513" />
  <rect x="320" y="300" width="30" height="10" fill="#8B4513" />
  <rect x="320" y="400" width="30" height="10" fill="#8B4513" />
  
  <rect x="180" y="250" width="30" height="10" fill="#8B4513" />
  <rect x="180" y="350" width="30" height="10" fill="#8B4513" />
  <rect x="180" y="450" width="30" height="10" fill="#8B4513" />
  
  <rect x="390" y="230" width="30" height="10" fill="#8B4513" />
  <rect x="390" y="330" width="30" height="10" fill="#8B4513" />
  <rect x="390" y="430" width="30" height="10" fill="#8B4513" />
  
  <!-- Bamboo leaves -->
  <path d="M280,120 Q320,100 350,120" stroke="#2E7D32" stroke-width="3" fill="none" />
  <path d="M280,140 Q330,130 360,150" stroke="#2E7D32" stroke-width="3" fill="none" />
  <path d="M350,170 Q390,150 420,170" stroke="#2E7D32" stroke-width="3" fill="none" />
  <path d="M350,190 Q400,180 430,200" stroke="#2E7D32" stroke-width="3" fill="none" />
  <path d="M210,220 Q170,200 140,220" stroke="#2E7D32" stroke-width="3" fill="none" />
  <path d="M210,240 Q160,230 130,250" stroke="#2E7D32" stroke-width="3" fill="none" />
  <path d="M420,200 Q460,180 490,200" stroke="#2E7D32" stroke-width="3" fill="none" />
  <path d="M420,220 Q470,210 500,230" stroke="#2E7D32" stroke-width="3" fill="none" />
</svg>
