<svg width="600" height="600" viewBox="0 0 600 600" xmlns="http://www.w3.org/2000/svg">
  <rect width="600" height="600" fill="#F5EFE6" />
  
  <!-- Vase -->
  <path d="M250,200 Q200,300 200,400 Q200,500 300,500 Q400,500 400,400 Q400,300 350,200 Z" fill="#C62828" />
  <ellipse cx="300" cy="200" rx="50" ry="20" fill="#C62828" />
  <ellipse cx="300" cy="500" rx="100" ry="20" fill="#8B4513" opacity="0.3" />
  
  <!-- Decorative pattern on vase -->
  <path d="M230,250 Q300,270 370,250 Q300,290 230,250 Z" fill="#F9A825" />
  <path d="M230,300 Q300,320 370,300 Q300,340 230,300 Z" fill="#F9A825" />
  <path d="M230,350 Q300,370 370,350 Q300,390 230,350 Z" fill="#F9A825" />
  
  <!-- Flowers -->
  <circle cx="270" cy="150" r="20" fill="#F9A825" />
  <circle cx="300" cy="130" r="20" fill="#2E7D32" />
  <circle cx="330" cy="150" r="20" fill="#F9A825" />
  <circle cx="250" cy="170" r="20" fill="#2E7D32" />
  <circle cx="350" cy="170" r="20" fill="#2E7D32" />
  
  <!-- Stems -->
  <line x1="270" y1="170" x2="280" y2="200" stroke="#2E7D32" stroke-width="3" />
  <line x1="300" y1="150" x2="300" y2="200" stroke="#2E7D32" stroke-width="3" />
  <line x1="330" y1="170" x2="320" y2="200" stroke="#2E7D32" stroke-width="3" />
  <line x1="250" y1="190" x2="270" y2="200" stroke="#2E7D32" stroke-width="3" />
  <line x1="350" y1="190" x2="330" y2="200" stroke="#2E7D32" stroke-width="3" />
</svg>
