<svg width="600" height="600" viewBox="0 0 600 600" xmlns="http://www.w3.org/2000/svg">
  <rect width="600" height="600" fill="#F5EFE6" />
  
  <!-- Necklace -->
  <ellipse cx="300" cy="250" rx="150" ry="100" fill="none" stroke="#8B4513" stroke-width="10" />
  
  <!-- Pendant -->
  <path d="M300,350 L330,400 L300,450 L270,400 Z" fill="#C62828" />
  <circle cx="300" cy="380" r="15" fill="#F9A825" />
  
  <!-- Decorative elements on necklace -->
  <circle cx="200" cy="220" r="15" fill="#F9A825" />
  <circle cx="240" cy="200" r="15" fill="#F9A825" />
  <circle cx="280" cy="190" r="15" fill="#F9A825" />
  <circle cx="320" cy="190" r="15" fill="#F9A825" />
  <circle cx="360" cy="200" r="15" fill="#F9A825" />
  <circle cx="400" cy="220" r="15" fill="#F9A825" />
  
  <!-- Earrings -->
  <circle cx="180" cy="150" r="20" fill="none" stroke="#8B4513" stroke-width="5" />
  <path d="M180,170 L180,220" stroke="#8B4513" stroke-width="5" fill="none" />
  <circle cx="180" cy="220" r="10" fill="#F9A825" />
  
  <circle cx="420" cy="150" r="20" fill="none" stroke="#8B4513" stroke-width="5" />
  <path d="M420,170 L420,220" stroke="#8B4513" stroke-width="5" fill="none" />
  <circle cx="420" cy="220" r="10" fill="#F9A825" />
  
  <!-- Bracelet -->
  <ellipse cx="300" cy="500" rx="80" ry="30" fill="none" stroke="#8B4513" stroke-width="10" />
  <circle cx="250" cy="500" r="10" fill="#F9A825" />
  <circle cx="280" cy="500" r="10" fill="#F9A825" />
  <circle cx="310" cy="500" r="10" fill="#F9A825" />
  <circle cx="340" cy="500" r="10" fill="#F9A825" />
</svg>
