<svg width="600" height="600" viewBox="0 0 600 600" xmlns="http://www.w3.org/2000/svg">
  <rect width="600" height="600" fill="#F5EFE6" />
  
  <!-- Canvas/Frame -->
  <rect x="150" y="100" width="300" height="400" fill="#FFFFFF" stroke="#8B4513" stroke-width="10" />
  
  <!-- Madhubani style painting -->
  <circle cx="300" cy="200" r="50" fill="#F9A825" /> <!-- Sun -->
  <path d="M300,150 L300,120" stroke="#2E7D32" stroke-width="3" />
  <path d="M350,200 L380,200" stroke="#2E7D32" stroke-width="3" />
  <path d="M300,250 L300,280" stroke="#2E7D32" stroke-width="3" />
  <path d="M250,200 L220,200" stroke="#2E7D32" stroke-width="3" />
  
  <path d="M335,165 L356,144" stroke="#2E7D32" stroke-width="3" />
  <path d="M335,235 L356,256" stroke="#2E7D32" stroke-width="3" />
  <path d="M265,235 L244,256" stroke="#2E7D32" stroke-width="3" />
  <path d="M265,165 L244,144" stroke="#2E7D32" stroke-width="3" />
  
  <!-- Peacock -->
  <path d="M200,350 Q300,250 400,350" fill="none" stroke="#2E7D32" stroke-width="3" />
  <path d="M220,340 Q300,260 380,340" fill="none" stroke="#2E7D32" stroke-width="3" />
  <path d="M240,330 Q300,270 360,330" fill="none" stroke="#2E7D32" stroke-width="3" />
  
  <path d="M300,350 L300,450" stroke="#2E7D32" stroke-width="5" />
  <path d="M300,400 L270,430" stroke="#2E7D32" stroke-width="3" />
  <path d="M300,400 L330,430" stroke="#2E7D32" stroke-width="3" />
  
  <circle cx="300" cy="330" r="20" fill="#C62828" />
  <circle cx="300" cy="330" r="10" fill="#F9A825" />
  
  <!-- Decorative elements -->
  <circle cx="200" cy="300" r="10" fill="#C62828" />
  <circle cx="400" cy="300" r="10" fill="#C62828" />
  <circle cx="250" cy="400" r="10" fill="#C62828" />
  <circle cx="350" cy="400" r="10" fill="#C62828" />
</svg>
