<svg width="600" height="600" viewBox="0 0 600 600" xmlns="http://www.w3.org/2000/svg">
  <rect width="600" height="600" fill="#F5EFE6" />
  
  <!-- Frame -->
  <rect x="100" y="100" width="400" height="400" fill="#FFFFFF" stroke="#8B4513" stroke-width="10" />
  
  <!-- Madhubani painting - Tree of Life -->
  <path d="M300,450 L300,350" stroke="#8B4513" stroke-width="15" fill="none" /> <!-- Trunk -->
  
  <!-- Branches -->
  <path d="M300,350 Q250,320 200,350" stroke="#8B4513" stroke-width="10" fill="none" />
  <path d="M300,350 Q350,320 400,350" stroke="#8B4513" stroke-width="10" fill="none" />
  <path d="M300,350 Q270,300 240,320" stroke="#8B4513" stroke-width="8" fill="none" />
  <path d="M300,350 Q330,300 360,320" stroke="#8B4513" stroke-width="8" fill="none" />
  <path d="M300,350 Q300,280 300,250" stroke="#8B4513" stroke-width="8" fill="none" />
  
  <!-- Leaves and flowers -->
  <circle cx="200" cy="350" r="20" fill="#2E7D32" />
  <circle cx="400" cy="350" r="20" fill="#2E7D32" />
  <circle cx="240" cy="320" r="15" fill="#2E7D32" />
  <circle cx="360" cy="320" r="15" fill="#2E7D32" />
  <circle cx="300" cy="250" r="15" fill="#2E7D32" />
  
  <circle cx="190" cy="340" r="10" fill="#C62828" />
  <circle cx="210" cy="360" r="10" fill="#C62828" />
  <circle cx="390" cy="340" r="10" fill="#C62828" />
  <circle cx="410" cy="360" r="10" fill="#C62828" />
  <circle cx="230" cy="310" r="8" fill="#C62828" />
  <circle cx="250" cy="330" r="8" fill="#C62828" />
  <circle cx="350" cy="310" r="8" fill="#C62828" />
  <circle cx="370" cy="330" r="8" fill="#C62828" />
  <circle cx="290" cy="240" r="8" fill="#C62828" />
  <circle cx="310" cy="260" r="8" fill="#C62828" />
  
  <!-- Birds -->
  <path d="M220,200 Q240,180 260,200" stroke="#000000" stroke-width="2" fill="none" />
  <path d="M380,200 Q360,180 340,200" stroke="#000000" stroke-width="2" fill="none" />
  <circle cx="230" cy="190" r="5" fill="#000000" />
  <circle cx="370" cy="190" r="5" fill="#000000" />
  
  <!-- Sun -->
  <circle cx="300" cy="150" r="30" fill="#F9A825" />
  <path d="M300,110 L300,90" stroke="#F9A825" stroke-width="3" />
  <path d="M300,190 L300,210" stroke="#F9A825" stroke-width="3" />
  <path d="M260,150 L240,150" stroke="#F9A825" stroke-width="3" />
  <path d="M340,150 L360,150" stroke="#F9A825" stroke-width="3" />
  <path d="M270,120 L255,105" stroke="#F9A825" stroke-width="3" />
  <path d="M330,120 L345,105" stroke="#F9A825" stroke-width="3" />
  <path d="M270,180 L255,195" stroke="#F9A825" stroke-width="3" />
  <path d="M330,180 L345,195" stroke="#F9A825" stroke-width="3" />
</svg>
