<svg width="600" height="600" viewBox="0 0 600 600" xmlns="http://www.w3.org/2000/svg">
  <rect width="600" height="600" fill="#F5EFE6" />
  
  <!-- Main pot -->
  <path d="M200,200 Q200,150 300,150 Q400,150 400,200 L400,400 Q400,450 300,450 Q200,450 200,400 Z" fill="#C62828" />
  <ellipse cx="300" cy="150" rx="100" ry="30" fill="#C62828" />
  <ellipse cx="300" cy="450" rx="100" ry="30" fill="#C62828" />
  
  <!-- Decorative patterns -->
  <path d="M220,250 L380,250" stroke="#F9A825" stroke-width="5" fill="none" />
  <path d="M220,300 L380,300" stroke="#F9A825" stroke-width="5" fill="none" />
  <path d="M220,350 L380,350" stroke="#F9A825" stroke-width="5" fill="none" />
  
  <circle cx="250" cy="275" r="10" fill="#F9A825" />
  <circle cx="300" cy="275" r="10" fill="#F9A825" />
  <circle cx="350" cy="275" r="10" fill="#F9A825" />
  
  <circle cx="250" cy="325" r="10" fill="#F9A825" />
  <circle cx="300" cy="325" r="10" fill="#F9A825" />
  <circle cx="350" cy="325" r="10" fill="#F9A825" />
  
  <!-- Small pots -->
  <ellipse cx="150" cy="350" rx="30" ry="15" fill="#C62828" />
  <path d="M120,350 Q120,400 150,400 Q180,400 180,350" fill="#C62828" />
  <ellipse cx="150" cy="400" rx="30" ry="15" fill="#C62828" />
  
  <ellipse cx="450" cy="350" rx="30" ry="15" fill="#C62828" />
  <path d="M420,350 Q420,400 450,400 Q480,400 480,350" fill="#C62828" />
  <ellipse cx="450" cy="400" rx="30" ry="15" fill="#C62828" />
</svg>
